<svg xmlns="http://www.w3.org/2000/svg" viewBox="0 0 160 160" role="img" aria-label="QR placeholder">
  <rect width="160" height="160" rx="22" fill="#FBF8F1"/>
  <rect x="16" y="16" width="44" height="44" rx="8" fill="#1F2D3D"/>
  <rect x="26" y="26" width="24" height="24" rx="4" fill="#FBF8F1"/>
  <rect x="100" y="16" width="44" height="44" rx="8" fill="#1F2D3D"/>
  <rect x="110" y="26" width="24" height="24" rx="4" fill="#FBF8F1"/>
  <rect x="16" y="100" width="44" height="44" rx="8" fill="#1F2D3D"/>
  <rect x="26" y="110" width="24" height="24" rx="4" fill="#FBF8F1"/>
  <g fill="#3F513F">
    <rect x="72" y="22" width="12" height="12" rx="3"/>
    <rect x="72" y="46" width="12" height="12" rx="3"/>
    <rect x="88" y="72" width="12" height="12" rx="3"/>
    <rect x="112" y="72" width="12" height="12" rx="3"/>
    <rect x="136" y="72" width="8" height="28" rx="3"/>
    <rect x="72" y="104" width="12" height="40" rx="3"/>
    <rect x="94" y="98" width="18" height="12" rx="3"/>
    <rect x="122" y="100" width="22" height="12" rx="3"/>
    <rect x="96" y="124" width="12" height="20" rx="3"/>
    <rect x="118" y="126" width="26" height="18" rx="3"/>
  </g>
  <circle cx="82" cy="82" r="6" fill="#D4AF37"/>
</svg>
